<svg width="283" height="95" viewBox="0 0 283 95" fill="none" xmlns="http://www.w3.org/2000/svg">
<rect width="283" height="95" fill="white"/>
<path d="M0.808001 93V29H20.008L20.904 42.824C22.5253 38.0453 24.9147 34.3333 28.072 31.688C31.3147 29.0427 35.4107 27.72 40.36 27.72C41.9813 27.72 43.3467 27.848 44.456 28.104C45.6507 28.36 46.5893 28.7013 47.272 29.128L45.096 47.048C44.2427 46.7067 43.1333 46.4507 41.768 46.28C40.488 46.024 38.9093 45.896 37.032 45.896C34.472 45.896 32.0827 46.4507 29.864 47.56C27.6453 48.6693 25.8533 50.3333 24.488 52.552C23.208 54.6853 22.568 57.416 22.568 60.744V93H0.808001ZM86.29 94.28C79.2073 94.28 73.0633 92.9573 67.858 90.312C62.738 87.6667 58.77 83.8693 55.954 78.92C53.138 73.9707 51.73 67.9973 51.73 61C51.73 54.0027 53.138 48.0293 55.954 43.08C58.77 38.1307 62.6953 34.3333 67.73 31.688C72.85 29.0427 78.6953 27.72 85.266 27.72C92.0073 27.72 97.7247 29.0427 102.418 31.688C107.197 34.248 110.823 37.832 113.298 42.44C115.773 46.9627 117.01 52.168 117.01 58.056C117.01 59.592 116.967 61.128 116.882 62.664C116.797 64.2 116.669 65.48 116.498 66.504H65.81V54.856H106.898L96.53 58.824C96.53 53.704 95.5913 49.7787 93.714 47.048C91.922 44.3173 89.106 42.952 85.266 42.952C82.5353 42.952 80.1887 43.592 78.226 44.872C76.3487 46.152 74.898 48.1573 73.874 50.888C72.9353 53.6187 72.466 57.1173 72.466 61.384C72.466 65.5653 73.0207 68.9787 74.13 71.624C75.2393 74.184 76.818 76.0613 78.866 77.256C80.914 78.3653 83.3887 78.92 86.29 78.92C89.5327 78.92 92.0927 78.28 93.97 77C95.9327 75.72 97.3833 73.928 98.322 71.624L115.73 77.384C114.535 81.0533 112.445 84.168 109.458 86.728C106.557 89.2027 103.058 91.08 98.962 92.36C94.9513 93.64 90.7273 94.28 86.29 94.28ZM168.783 29H191.311L168.271 93H142.287L119.247 29H142.159L155.343 77.768L168.783 29ZM209.813 21.576C205.376 21.576 202.133 20.7653 200.085 19.144C198.122 17.4373 197.141 14.792 197.141 11.208C197.141 7.53866 198.122 4.89333 200.085 3.272C202.133 1.56533 205.376 0.711998 209.813 0.711998C214.165 0.711998 217.365 1.56533 219.413 3.272C221.461 4.89333 222.485 7.53866 222.485 11.208C222.485 14.792 221.461 17.4373 219.413 19.144C217.365 20.7653 214.165 21.576 209.813 21.576ZM220.693 29V93H198.933V29H220.693ZM236.183 93V29H255.383L256.279 42.824C257.9 38.0453 260.29 34.3333 263.447 31.688C266.69 29.0427 270.786 27.72 275.735 27.72C277.356 27.72 278.722 27.848 279.831 28.104C281.026 28.36 281.964 28.7013 282.647 29.128L280.471 47.048C279.618 46.7067 278.508 46.4507 277.143 46.28C275.863 46.024 274.284 45.896 272.407 45.896C269.847 45.896 267.458 46.4507 265.239 47.56C263.02 48.6693 261.228 50.3333 259.863 52.552C258.583 54.6853 257.943 57.416 257.943 60.744V93H236.183Z" fill="white"/>
</svg>
